# AST/ASF file generated using VICON BodyLanguage
# -----------------------------------------------
:version 1.10
:name VICON
:units
  mass 1.0
  length 0.45
  angle deg
:documentation
   .ast/.asf automatically generated from VICON data using
   VICON BodyBuilder and BodyLanguage model FoxedUp or BRILLIANT.MOD
:root
   order TX TY TZ RX RY RZ
   axis XYZ
   position 0 0 0  
   orientation 0 0 0 
:bonedata
  begin
     id 1 
     name lhipjoint
     direction 0.440178 -0.822639 0.359871 
     length 2.53113 
     axis 0 0 0  XYZ
  end
  begin
     id 2 
     name lfemur
     direction 0.34202 -0.939693 0  
     length 7.88132  
     axis 0 0 20  XYZ
    dof rx ry rz
    limits (-160.0 20.0)
           (-70.0 70.0)
           (-60.0 70.0)
  end
  begin
     id 3 
     name ltibia
     direction 0.34202 -0.939693 0   
     length 8.43783   
     axis 0 0 20   XYZ
    dof rx
    limits (-10.0 170.0)
  end
  begin
     id 4 
     name lfoot
     direction 0.0886351 -0.243523 0.965837   
     length 2.63414   
     axis -90 7.62852e-016 20   XYZ
    dof rx rz
    limits (-45.0 90.0)
           (-70.0 20.0)
  end
  begin
     id 5 
     name ltoes
     direction 1.53703e-011 -4.21717e-011 1   
     length 1.31427   
     axis -90 7.62852e-016 20   XYZ
    dof rx
    limits (-90.0 20.0)
  end
  begin
     id 6 
     name rhipjoint
     direction -0.399779 -0.839773 0.367367   
     length 2.47948  
     axis 0 0 0  XYZ 
  end
  begin
     id 7 
     name rfemur
     direction -0.34202 -0.939693 0   
     length 7.74806   
     axis 0 0 -20   XYZ
    dof rx ry rz
    limits (-160.0 20.0)
           (-70.0 70.0)
           (-70.0 60.0)
  end
  begin
     id 8 
     name rtibia
     direction -0.34202 -0.939693 0   
     length 8.74432   
     axis 0 0 -20   XYZ
    dof rx
    limits (-10.0 170.0)
 end
 begin
     id 9 
     name rfoot
     direction -0.108514 -0.298139 0.948334   
     length 2.66102  
     axis -90 -7.62852e-016 -20   XYZ
    dof rx rz
    limits (-45.0 90.0)
           (-20.0 70.0)
  end
  begin
     id 10 
     name rtoes
     direction -1.53392e-011 -4.22077e-011 1   
     length 1.31983   
     axis -90 -7.62852e-016 -20   XYZ
    dof rx
    limits (-90.0 20.0)
  end
  begin
     id 11 
     name lowerback
     direction 0.0113257 0.999866 0.0118602   
     length 2.58694   
     axis 0 0 0   XYZ
    dof rx ry rz
    limits (-20.0 45.0)
           (-30.0 30.0)
           (-30.0 30.0)
  end
  begin
     id 12 
     name upperback
     direction -0.0164747 0.995193 -0.0965375   
     length 2.52368   
     axis 0 0 0   XYZ
    dof rx ry rz
    limits (-20.0 45.0)
           (-30.0 30.0)
           (-30.0 30.0)
  end
  begin
     id 13 
     name thorax
     direction -0.0194301 0.99433 -0.104552   
     length 2.56099   
     axis 0 0 0   XYZ
    dof rx ry rz
    limits (-20.0 45.0)
           (-30.0 30.0)
           (-30.0 30.0)
  end
  begin
     id 14 
     name lowerneck
     direction 0.0148543 0.995587 -0.092657   
     length 1.71582   
     axis 0 0 0   XYZ
    dof rx ry rz
    limits (-20.0 45.0)
           (-30.0 30.0)
           (-30.0 30.0)
  end
  begin
     id 15 
     name upperneck
     direction -0.0135467 0.993656 -0.111639   
     length 1.68937   
     axis 0 0 0   XYZ
    dof rx ry rz
    limits (-20.0 45.0)
           (-30.0 30.0)
           (-30.0 30.0)
  end
  begin
     id 16
     name head
     direction -0.00615349 0.999547 -0.029448  
     length 1.7462  
     axis 0 0 0   XYZ
    dof rx ry rz
    limits (-20.0 45.0)
           (-30.0 30.0)
           (-30.0 30.0)
  end
  begin
     id 17 
     name lclavicle
     direction 0.988267 0.149885 0.0293713  
     length 4.47222  
     axis 0 0 0   XYZ
    dof ry rz
    limits (-20.0 10.0)
           (0.0 20.0)
  end
  begin
     id 18 
     name lhumerus
     direction 1 -4.48986e-011 -1.14833e-027   
     length 5.37148   
     axis 180 -30 -90   XYZ
    dof rx ry rz
    limits (-60.0 90.0)
           (-90.0 90.0)
           (-90.0 90.0)
  end
  begin
     id 19
     name lradius
     direction 0.999998 0.00170963 -0.000987055   
     length 3.94212   
     axis 180 -30 -90   XYZ
    dof rx
    limits (-10.0 170.0)
  end
  begin
     id 20
     name lwrist
     direction 0.999998 7.53149e-005 -0.00194706   
     length 1.97106   
     axis 4.65056e-015 90 90   XYZ
    dof ry
    limits (-180.0 0.0)
 end
  begin
     id 21 
     name lhand
     direction 1 -4.48973e-011 -1.31746e-026   
     length 1.17917   
     axis 8.4065e-015 90 90   XYZ
    dof rx rz
    limits (-90.0 90.0)
           (-45.0 45.0)
  end
  begin
     id 22 
     name lfingers
     direction 1 -4.49107e-011 -2.63492e-026   
     length 0.950679   
     axis 1.6813e-014 90 90   XYZ
    dof rx
    limits (0.0 90.0)
  end
  begin
     id 23
     name lthumb
     direction 0.707107 -6.35048e-011 0.707107   
     length 1.36499   
     axis -90 45 2.85299e-015   XYZ
    dof rx rz
    limits (-45.0 45.0)
           (-45.0 45.0)
  end
  begin
     id 24 
     name rclavicle
     direction -0.996699 0.0642895 -0.0495725   
     length 4.62611  
     axis 0 0 0   XYZ 
    dof ry rz
    limits (-10.0 20.0)
           (-20.0 0.0)
  end
  begin
     id 25 
     name rhumerus
     direction -1 -4.48919e-011 -2.41059e-027  
     length 5.4981   
     axis 180 30 90   XYZ
    dof rx ry rz
    limits (-90.0 60.0)
           (-90.0 90.0)
           (-90.0 90.0)
  end
  begin
     id 26 
     name rradius
     direction -0.999999 0.00118101 -0.000681858   
     length 3.48381   
     axis 180 30 90   XYZ
    dof rx
    limits (-10.0 170.0)
  end
  begin
     id 27 
     name rwrist
     direction -0.999999 0.000321823 -0.00132288   
     length 1.7419   
     axis 4.65056e-015 -90 -90   XYZ
    dof ry
    limits (-180.0 0.0)
  end
  begin
     id 28
     name rhand
     direction -1 -4.49022e-011 -1.31746e-026   
     length 1.34932   
     axis 8.4065e-015 -90 -90   XYZ
    dof rx rz
    limits (-90.0 90.0)
           (-45.0 45.0)
  end
  begin
     id 29
     name rfingers
     direction -1 -4.49178e-011 -2.63492e-026   
     length 1.08785   
     axis 1.6813e-014 -90 -90   XYZ
    dof rx
    limits (0.0 90.0)
  end
  begin
     id 30
     name rthumb
     direction -0.707107 -6.34713e-011 0.707107   
     length 1.56195   
     axis -90 -45 -2.85299e-015   XYZ
    dof rx rz
    limits (-45.0 45.0)
           (-45.0 45.0)
  end
:hierarchy
  begin
    root lhipjoint rhipjoint lowerback
    lhipjoint lfemur
    lfemur ltibia
    ltibia lfoot
    lfoot ltoes
    rhipjoint rfemur
    rfemur rtibia
    rtibia rfoot
    rfoot rtoes
    lowerback upperback
    upperback thorax
    thorax lowerneck lclavicle rclavicle
    lowerneck upperneck
    upperneck head
    lclavicle lhumerus
    lhumerus lradius
    lradius lwrist
    lwrist lhand lthumb
    lhand lfingers
    rclavicle rhumerus
    rhumerus rradius
    rradius rwrist
    rwrist rhand rthumb
    rhand rfingers
  end

#!OML:ASF X:\für Bonn\!DataBase\2005_08_10_Bjorn_Final\c3d\bjorn.ASF
:FULLY-SPECIFIED
:DEGREES
16
root -18.6327 18.955 22.8568 170.854 48.0902 -540.754
lowerback 3.29549 -1.89699 6.17691
upperback 13.0608 -1.7825 2.79174
thorax 12.1297 0.125719 -0.402393
lowerneck -1.80034 3.36358 2.64874
upperneck 2.0114 4.8047 -9.46752
head 1.28508 2.36577 -3.44073
rclavicle 6.36111e-015 -7.95139e-015
rhumerus -16.6881 9.01105 -90.982
rradius 46.6852
rwrist -2.35695
rhand -20.9472 19.9614
rfingers 7.12502
rthumb 5.42535 -9.94919
lclavicle 6.36111e-015 -7.95139e-015
lhumerus -25.2828 -0.375458 87.3955
lradius 22.4834
lwrist -28.3265
lhand -29.755 -18.3647
lfingers 7.12502
lthumb -3.08086 11.5928
rfemur -3.22024 -2.81903 19.0174
rtibia 32.9858
rfoot -19.6771 8.5714
rtoes -2.94452
lfemur -40.5009 15.1799 -13.5478
ltibia 73.762
lfoot -6.04424 11.9626
ltoes -15.9652
17
root -18.5906 18.9386 22.838 170.939 48.0491 -540.638
lowerback 3.21848 -1.85949 6.00471
upperback 13.1159 -1.72821 2.73617
thorax 12.2459 0.14195 -0.363166
lowerneck -1.59939 3.35012 2.59704
upperneck 1.7234 4.75609 -9.31327
head 1.14631 2.35218 -3.38246
rclavicle 1.00187e-013 1.59028e-015
rhumerus -16.5679 9.25414 -91.1362
rradius 46.6382
rwrist -2.36254
rhand -20.9698 19.9082
rfingers 7.12502
rthumb 5.40354 -10.0029
lclavicle 1.00187e-013 1.59028e-015
lhumerus -25.1643 -0.373922 87.2695
lradius 22.3671
lwrist -28.1036
lhand -29.808 -18.2039
lfingers 7.12502
lthumb -3.13206 11.7528
rfemur -3.18979 -2.74987 19.1713
rtibia 33.2417
rfoot -19.993 8.46181
rtoes -3.03341
lfemur -40.4458 15.251 -13.4116
ltibia 72.0743
lfoot -5.4146 12.4215
ltoes -17.4939
18
root -18.5466 18.9173 22.8182 171.035 48.0231 -540.502
lowerback 3.12821 -1.81208 5.84222
upperback 13.188 -1.65983 2.68378
thorax 12.3914 0.167626 -0.323939
lowerneck -1.40469 3.32879 2.57402
upperneck 1.41671 4.69752 -9.19546
head 1.00481 2.3338 -3.34291
rclavicle -3.77691e-014 -1.90833e-014
rhumerus -16.4376 9.46766 -91.285
rradius 46.6123
rwrist -2.39254
rhand -20.9881 19.8909
rfingers 7.12502
rthumb 5.38583 -10.0207
lclavicle -3.77691e-014 -1.90833e-014
lhumerus -25.0166 -0.412433 87.1522
lradius 22.257
lwrist -27.9309
lhand -29.8665 -18.0957
lfingers 7.12502
lthumb -3.18855 11.8602
rfemur -3.17207 -2.66704 19.3449
rtibia 33.5452
rfoot -20.3093 8.395
rtoes -2.9398
lfemur -40.3051 15.3135 -13.2138
ltibia 70.3714
lfoot -4.85956 12.7269
ltoes -18.3811
19
root -18.5018 18.8934 22.7977 171.159 47.9841 -540.362
lowerback 2.99537 -1.77626 5.65306
upperback 13.2562 -1.61147 2.64311
thorax 12.5585 0.179272 -0.25889
lowerneck -1.18933 3.31264 2.47431
upperneck 1.0738 4.64385 -9.01976
head 0.8451 2.31875 -3.26984
rclavicle 3.73715e-014 -4.45278e-014
rhumerus -16.2813 9.70752 -91.419
rradius 46.5441
rwrist -2.40164
rhand -21.0396 19.8725
rfingers 7.12502
rthumb 5.33613 -10.0403
lclavicle 3.73715e-014 -4.45278e-014
lhumerus -24.8575 -0.276519 87.0043
lradius 22.1268
lwrist -27.9162
lhand -29.9765 -18.0522
lfingers 7.12502
lthumb -3.29476 11.9021
rfemur -3.20384 -2.5561 19.5323
rtibia 33.9046
rfoot -20.654 8.28148
rtoes -2.87014
lfemur -40.1191 15.3234 -12.9619
ltibia 68.6554
lfoot -4.46479 12.9137
ltoes -18.2042
20
root -18.4566 18.8674 22.7756 171.265 47.9729 -540.226
lowerback 2.87637 -1.72421 5.47493
upperback 13.3273 -1.53816 2.59212
thorax 12.7216 0.204786 -0.208828
lowerneck -0.976679 3.29133 2.40445
upperneck 0.742804 4.58475 -8.85367
head 0.691427 2.30038 -3.20643
rclavicle -1.19271e-014 -5.725e-014
rhumerus -16.1707 9.89192 -91.5491
rradius 46.5221
rwrist -2.38394
rhand -21.0915 19.8108
rfingers 7.12502
rthumb 5.28601 -10.1033
lclavicle -1.19271e-014 -5.725e-014
lhumerus -24.7016 -0.117174 86.8303
lradius 21.9929
lwrist -27.963
lhand -30.1215 -18.0273
lfingers 7.12502
lthumb -3.4348 11.9248
rfemur -3.24505 -2.48937 19.7008
rtibia 34.3139
rfoot -21.0206 8.24528
rtoes -2.7296
lfemur -39.8712 15.3446 -12.6964
ltibia 66.9347
lfoot -4.10635 13.1072
ltoes -17.9981
21
root -18.4103 18.8396 22.7531 171.406 47.9494 -540.065
lowerback 2.71776 -1.68682 5.3051
upperback 13.4127 -1.48653 2.54141
thorax 12.9258 0.221935 -0.163919
lowerneck -0.766678 3.27828 2.35549
upperneck 0.377091 4.53603 -8.71461
head 0.530008 2.28774 -3.15688
rclavicle -5.04913e-014 7.31528e-014
rhumerus -15.9948 10.0879 -91.6782
rradius 46.4477
rwrist -2.34718
rhand -21.1495 19.7929
rfingers 7.12502
rthumb 5.23003 -10.1226
lclavicle -5.04913e-014 7.31528e-014
lhumerus -24.5083 0.148545 86.6242
lradius 21.8678
lwrist -28.114
lhand -30.2778 -18.0804
lfingers 7.12502
lthumb -3.58574 11.8691
rfemur -3.31808 -2.37862 19.9038
rtibia 34.7631
rfoot -21.4187 8.13039
rtoes -2.80167
lfemur -39.62 15.3674 -12.4099
ltibia 65.2159
lfoot -3.71282 13.2559
ltoes -17.6764
22
root -18.3632 18.8091 22.7307 171.523 47.9295 -539.93
lowerback 2.58154 -1.63802 5.10355
upperback 13.4846 -1.41593 2.4848
thorax 13.1012 0.24318 -0.106688
lowerneck -0.531455 3.2602 2.27199
upperneck 0.0104641 4.48024 -8.51692
head 0.361698 2.27145 -3.0822
rclavicle -1.48691e-013 1.11319e-014
rhumerus -15.8533 10.2149 -91.8233
rradius 46.3846
rwrist -2.33169
rhand -21.1851 19.7709
rfingers 7.12502
rthumb 5.19567 -10.1454
lclavicle -1.48691e-013 1.11319e-014
lhumerus -24.3462 0.404245 86.4149
lradius 21.7646
lwrist -28.263
lhand -30.4514 -18.1418
lfingers 7.12502
lthumb -3.75342 11.8049
rfemur -3.40386 -2.29438 20.081
rtibia 35.2452
rfoot -21.8325 8.08151
rtoes -2.70397
lfemur -39.3479 15.404 -12.1362
ltibia 63.4999
lfoot -3.27474 13.4003
ltoes -17.3597
23
root -18.3165 18.7769 22.7079 171.669 47.9143 -539.739
lowerback 2.46343 -1.60184 4.93282
upperback 13.572 -1.35913 2.44127
thorax 13.2842 0.261933 -0.0520029
lowerneck -0.338898 3.24734 2.18864
upperneck -0.338054 4.43485 -8.33867
head 0.208513 2.25894 -3.01386
rclavicle 2.94201e-014 4.29375e-014
rhumerus -15.7061 10.3548 -91.9489
rradius 46.3304
rwrist -2.32092
rhand -21.2051 19.7918
rfingers 7.12502
rthumb 5.17633 -10.125
lclavicle 2.94201e-014 4.29375e-014
lhumerus -24.171 0.818049 86.1894
lradius 21.6658
lwrist -28.5419
lhand -30.6323 -18.2342
lfingers 7.12502
lthumb -3.92805 11.7094
rfemur -3.48253 -2.22448 20.3026
rtibia 35.7428
rfoot -22.2576 7.97804
rtoes -2.86753
lfemur -39.0317 15.4301 -11.8092
ltibia 61.7902
lfoot -2.82596 13.6449
ltoes -16.9883
24
root -18.2687 18.7456 22.6848 171.813 47.8855 -539.604
lowerback 2.30466 -1.5596 4.70188
upperback 13.6433 -1.2969 2.39833
thorax 13.4742 0.273972 0.0363666
lowerneck -0.120553 3.23328 2.10969
upperneck -0.681955 4.38935 -8.16277
head 0.0531226 2.24649 -2.94838
rclavicle -2.54444e-014 3.33958e-014
rhumerus -15.5663 10.4786 -92.06
rradius 46.2799
rwrist -2.28221
rhand -21.2192 19.7813
rfingers 7.12502
rthumb 5.16274 -10.1358
lclavicle -2.54444e-014 3.33958e-014
lhumerus -24.0242 1.32031 85.9727
lradius 21.5917
lwrist -28.8787
lhand -30.7933 -18.3222
lfingers 7.12502
lthumb -4.08358 11.6184
rfemur -3.61071 -2.17764 20.4708
rtibia 36.2503
rfoot -22.6633 7.94926
rtoes -2.82644
lfemur -38.7273 15.4148 -11.524
ltibia 60.0746
lfoot -2.19548 13.9319
ltoes -17.5821
25
root -18.2207 18.713 22.663 171.942 47.8614 -539.438
lowerback 2.20563 -1.52219 4.48623
upperback 13.7287 -1.23207 2.35053
thorax 13.6443 0.290612 0.112436
lowerneck 0.0704635 3.2259 2.02225
upperneck -1.01536 4.35382 -7.95033
head -0.0941882 2.23744 -2.86899
rclavicle -7.4743e-014 -8.74653e-015
rhumerus -15.4214 10.5412 -92.1837
rradius 46.2138
rwrist -2.20591
rhand -21.1958 19.8153
rfingers 7.12502
rthumb 5.18526 -10.1012
lclavicle -7.4743e-014 -8.74653e-015
lhumerus -23.8964 1.90388 85.732
lradius 21.5463
lwrist -29.2658
lhand -30.9797 -18.4237
lfingers 7.12502
lthumb -4.2635 11.5134
rfemur -3.69131 -2.14399 20.6674
rtibia 36.7542
rfoot -23.0889 7.91631
rtoes -2.88702
lfemur -38.3628 15.3836 -11.1896
ltibia 58.3553
lfoot -1.27784 14.1192
ltoes -19.0804
26
root -18.1724 18.6802 22.6399 172.085 47.8573 -539.276
lowerback 2.08051 -1.46823 4.26618
upperback 13.8135 -1.14592 2.30034
thorax 13.8311 0.316517 0.190541
lowerneck 0.236586 3.20559 1.99661
upperneck -1.31168 4.30515 -7.78608
head -0.223244 2.2203 -2.81693
rclavicle 3.57812e-014 -6.52014e-014
rhumerus -15.2788 10.5854 -92.3013
rradius 46.1808
rwrist -2.20937
rhand -21.1527 19.8523
rfingers 7.12502
rthumb 5.22691 -10.0632
lclavicle 3.57812e-014 -6.52014e-014
lhumerus -23.7573 2.48704 85.5009
lradius 21.5132
lwrist -29.6778
lhand -31.0976 -18.4166
lfingers 7.12502
lthumb -4.37737 11.5182
rfemur -3.79411 -2.09529 20.8573
rtibia 37.2612
rfoot -23.4949 7.91126
rtoes -2.8038
lfemur -37.9742 15.303 -10.8385
ltibia 56.6222
lfoot -0.371064 14.327
ltoes -20.1466
